# xmcd CD database file
#
# Track frame offsets:
#	150
#	17191
#	32705
#	48515
#	64337
#	80244
#	98153
#	117065
#	133139
#	152685
#	169917
#	187019
#	203956
#	221540
#	240002
#	254841
#	270140
#	287143
#	307687
#	323386
#
# Disc length: 4560 seconds
#
# Revision: 0
# Processed by: cddbd v1.5.1PL0 Copyright (c) Steve Scherf et al.
# Submitted via: CDex 1.51
#
DISCID=1811ce14
DTITLE=Various Artist - Trail Of Dreams
DYEAR=2002
DGENRE=Country
TTITLE0=Sara Storer Martin Oakes-Trail of Dreams
TTITLE1=Adam Brand-Uncle Pete
TTITLE2=Catherine Britt-46 Miles From Alice
TTITLE3=Colin Buchanan-A Drovers Wife
TTITLE4=Troy Cassar-Daly-I Want To Walk That Road With You
TTITLE5=Kasey Chambers-Southern Kind Of Life
TTITLE6=Darren Coggan-Mitch
TTITLE7=Beccy Cole-Too Strong To Break
TTITLE8=Felicity-Western Lullaby
TTITLE9=Adam Harvey-Shake Of A Hand
TTITLE10=Gina Jeffreys-Out Of The Blues
TTITLE11=Lee Kernaghan-Shake On It
TTITLE12=Tania Kernaghan-When I Ride
TTITLE13=Korey Livey-Saying Goodbye
TTITLE14=Red Rivers-Western Girl
TTITLE15=Melinda Schneider-3 Rings
TTITLE16=Travis Sinclair-Still Riding That Line
TTITLE17=Tamara Stewart-When You've Lost Your Faith
TTITLE18=Sara Storer-Cowboy Song
TTITLE19=Brendon Walmsley-Rose and Rodeo
EXTD=YEAR: 2002
EXTT0=
EXTT1=
EXTT2=
EXTT3=
EXTT4=
EXTT5=
EXTT6=
EXTT7=
EXTT8=
EXTT9=
EXTT10=
EXTT11=
EXTT12=
EXTT13=
EXTT14=
EXTT15=
EXTT16=
EXTT17=
EXTT18=
EXTT19=
PLAYORDER=
